<svg width="260" height="87" viewBox="0 0 260 87" fill="none" xmlns="http://www.w3.org/2000/svg">
<g clip-path="url(#clip0_615_172)">
<path d="M44.9374 0.0444798C45.3371 0.140014 45.7051 0.369297 45.9272 0.71959C46.2 1.14631 46.238 1.68767 46.1365 2.18445C45.9081 3.30539 45.2102 4.27984 44.9501 5.40077C44.6773 6.57903 44.5758 7.7955 44.6202 8.99924C44.671 10.2476 44.8676 11.4704 45.0199 12.706C45.1151 13.4639 45.2102 14.2218 45.2229 14.9924C45.2293 15.7376 45.1531 16.47 44.9818 17.1961C44.5758 18.8902 43.6051 20.1704 42.1459 21.0875C41.7208 21.355 41.2767 21.5907 40.8263 21.8008C39.6081 22.3677 38.7263 23.2721 38.0855 24.4312C37.5018 25.4885 37.1655 26.6285 36.9371 27.8068C36.6072 29.5073 36.5628 31.2269 36.6199 32.9529C36.639 33.456 36.6643 33.9592 36.6897 34.456C36.7087 34.7999 36.842 35.0865 37.0704 35.354C38.6438 37.2137 40.3187 38.9843 41.9936 40.7549C42.9136 41.7293 43.7764 42.7484 44.5441 43.8438C44.6773 44.0349 44.7725 44.2705 44.9945 44.3979C45.058 44.3661 45.1214 44.347 45.1785 44.3024C47.4435 42.5764 49.5942 40.7294 51.396 38.5066C52.2589 37.443 53.0075 36.3157 53.5024 35.0292C53.4389 34.87 53.2867 34.8572 53.1534 34.819C51.2565 34.2904 49.8163 33.1312 48.6489 31.5772C47.6401 30.2334 45.1278 26.4566 46.3332 24.7688C46.7266 24.2211 47.4498 23.9345 48.1096 24.0682C49.277 24.3102 49.4991 25.6222 50.1335 26.4566C50.8821 27.4501 51.8719 28.2335 52.9504 28.8385C53.071 28.9022 53.1661 28.8513 53.2105 28.6984C53.312 28.3545 53.4072 28.0106 53.5024 27.6667C53.8196 26.482 54.3208 25.3738 54.8791 24.2911C55.1646 23.737 55.4628 23.1957 55.7483 22.6416C56.0528 22.0492 56.3383 21.4442 56.5604 20.8073C57.2646 18.8329 56.4081 17.6419 55.8625 15.8586C55.7102 15.3746 55.6975 14.8268 55.9323 14.381C56.332 13.6167 57.3661 13.3556 58.1909 13.6167C60.1577 14.2409 61.0395 16.7948 61.4012 18.6227C61.7311 20.3296 61.5915 21.9983 61.0522 23.6478C60.7921 24.444 60.4558 25.2082 60.0688 25.9534C59.7516 26.5648 59.4217 27.1763 59.0981 27.7877C58.8761 28.2144 58.6984 28.6538 58.5652 29.1124C58.3305 29.9085 58.2924 30.7174 58.5335 31.5199C59.1806 33.6599 58.9142 35.7298 58.0767 37.7551C57.3661 39.4747 56.351 41.0033 55.171 42.4235C53.4897 44.4616 51.5546 46.2322 49.5181 47.8945C48.706 48.5568 47.8559 49.181 46.9867 49.7669C46.7456 49.9262 46.625 50.0981 46.6377 50.4102C46.7202 52.6712 46.422 54.894 46.0287 57.1104C45.7812 58.4988 46.0667 59.7153 46.993 60.7853C47.6401 61.5241 48.3761 62.1737 49.0676 62.8615C49.1755 62.9634 49.3024 62.9188 49.3214 62.7724C49.3975 62.1801 49.442 61.5814 49.5308 60.9954C49.9622 58.2822 51.0407 55.8748 52.9568 53.8749C53.8133 52.9833 54.8474 52.1617 56.0909 51.9324C56.7888 51.805 57.5691 51.9388 58.0703 52.4355C58.6984 53.0533 58.7492 54.0851 58.4256 54.9067C57.9054 56.2314 56.6365 57.0913 55.9132 58.295C55.19 59.4987 54.803 60.868 54.6824 62.2629C54.6126 63.0717 54.5619 63.8869 54.5111 64.6958C54.4984 64.9378 54.5873 65.0079 54.803 64.9314C56.5921 64.3391 58.3305 63.6194 59.9293 62.6004C61.4392 61.6387 62.8794 60.5751 64.2498 59.4223C66.5147 57.518 68.4434 55.3207 70.1437 52.9068C73.0685 48.7607 74.9338 44.175 75.8791 39.1945C76.2217 37.3793 76.4311 35.5578 76.4818 33.7108C76.5262 31.9848 76.4691 30.2652 76.2217 28.5583C75.8664 26.0872 75.1622 23.7943 74.5214 21.3996C74.0582 19.6736 74.3818 17.7183 76.3486 17.0369C80.022 15.7567 81.0054 20.4697 81.6779 22.909C82.1537 24.6414 82.4455 26.412 82.6676 28.1889C82.7628 28.9468 82.8135 29.7111 82.8516 30.4754C82.896 31.4052 82.9404 32.3415 82.9341 33.2713C82.9087 36.1501 82.6168 39.0034 81.957 41.8057C80.8912 46.3277 79.2162 50.6077 76.761 54.5628C75.1304 57.1868 73.2652 59.6388 71.0891 61.8361C69.4586 63.4857 67.7202 65.0206 65.8359 66.3708C61.325 69.6063 56.37 71.8736 50.9646 73.141C48.4522 73.7333 45.9081 74.0582 43.326 74.1919C41.632 74.2811 39.938 74.2429 38.2504 74.1091C33.8474 73.7652 29.5967 72.7589 25.5172 71.0584C21.3236 69.3069 17.5106 66.944 14.0783 63.957C11.9402 62.0973 10.0496 60.021 8.33022 57.7791C5.85591 54.55 4.00334 50.9834 2.56316 47.1812C1.59247 44.6208 0.926306 41.9905 0.488542 39.2964C0.0127119 36.3603 -0.114176 33.3987 0.0634672 30.4244C0.1967 28.2271 0.494887 26.0362 0.970717 23.8899C1.39579 21.9728 1.8399 19.6481 2.70274 17.8903C3.2547 16.7694 4.20636 15.7822 5.41814 15.5083C6.71875 15.209 8.17796 15.8395 8.85047 16.9923C9.68158 18.4126 9.00908 19.6991 8.52056 21.062C7.84805 22.9409 7.25802 24.9025 6.92177 26.8705C6.52207 29.2143 6.3698 31.5708 6.43325 33.9465C6.50938 36.9271 6.95349 39.8505 7.82267 42.7038C9.03445 46.6907 10.8045 50.4166 13.3169 53.7476C14.9601 55.9257 16.8063 57.9256 18.919 59.6707C22.2498 62.4157 25.9359 64.5238 30.0217 65.9186C32.4199 66.7339 34.8752 67.3007 37.4003 67.5746C38.942 67.7402 40.49 67.8357 42.038 67.823C42.2537 67.823 42.4695 67.8102 42.6788 67.7911C42.755 67.7847 42.793 67.7019 42.7613 67.6319C42.7169 67.5236 42.6598 67.4153 42.59 67.3198C40.8326 64.785 39.0562 62.2692 37.0133 59.9573C36.3344 59.1866 35.6048 58.4606 34.8498 57.7664C34.6214 57.5562 34.3803 57.3587 34.1393 57.1613C33.3843 56.5372 32.5468 56.1423 31.5507 56.0658C30.6689 56.0022 29.8187 55.7474 28.9876 55.4353C26.323 54.4227 24.5529 52.5311 23.6393 49.8306C23.2523 48.697 23.0302 47.5187 22.9224 46.3277C22.7511 44.4807 21.9961 37.1246 25.1873 37.2519C27.6109 37.3475 26.9764 41.0096 27.0589 42.5573C27.135 43.9202 27.281 45.2705 27.6236 46.5952C27.7949 47.2448 28.0233 47.8754 28.3595 48.4549C28.8797 49.3402 29.6284 49.9262 30.6054 50.2255C31.2272 50.4102 31.8616 50.5312 32.4961 50.5822C33.4921 50.665 34.3994 50.9834 35.2749 51.442C36.4867 52.0789 37.5779 52.8877 38.5803 53.8176C39.1069 54.3017 39.6081 54.8175 40.1157 55.3207C40.3187 55.5181 40.4964 55.7474 40.7501 55.9066C40.8009 55.8302 40.8643 55.7793 40.877 55.7156C41.0927 54.2507 41.3592 52.7922 41.3719 51.3019C41.3909 49.8816 41.1181 48.5441 40.3631 47.3276C40.0459 46.8181 39.6906 46.3405 39.3036 45.8883C38.3583 44.7801 37.3495 43.7292 36.3408 42.6783C34.9006 41.1816 33.5429 39.6085 32.2169 38.0035C29.6728 34.9273 27.3634 31.6727 25.2381 28.2908C24.0326 26.3801 23.0619 24.3675 22.4275 22.1957C21.958 20.578 21.7233 18.9221 21.7867 17.2407C21.8501 15.5338 21.9517 12.1073 23.4997 10.9991C24.1659 10.5214 25.1492 10.4832 25.771 11.0118C26.2532 11.4258 26.4498 12.1073 26.4245 12.7506C26.3927 13.5913 26.0438 14.3173 26.0501 15.158C26.0501 16.1261 26.1961 17.0814 26.4308 18.0177C26.9003 19.9093 27.6743 21.6798 28.5879 23.3931C29.4 24.9153 30.3263 26.361 31.316 27.7686C31.3414 27.8068 31.3921 27.8259 31.4365 27.8577C31.5825 27.6921 31.5952 27.482 31.6396 27.2782C31.9187 25.8706 32.2423 24.4758 32.7816 23.1383C33.1686 22.183 33.6381 21.2722 34.2217 20.4188C35.313 18.8202 36.7468 17.6355 38.4725 16.7821C38.7707 16.6356 39.0689 16.4828 39.3607 16.3172C39.7667 16.0815 39.9507 15.7249 39.9444 15.2472C39.9317 14.502 39.8048 13.7696 39.7096 13.0372C39.2719 9.61703 39.697 6.32427 41.2196 3.19712C41.8414 1.91695 42.9199 -0.0319477 44.5758 -0.000102913C44.6963 -0.000102913 44.8232 0.019004 44.9374 0.0444798Z" fill="black"/>
<path d="M93.9226 18.7437H91.3848V2.95508H94.8362L99.3661 12.1009L100.8 15.3746H100.99L102.373 12.1009L106.859 2.95508H110.31V18.7437H107.772V9.05654L107.868 6.77009H107.677L106.713 9.05654L102.373 17.8011H99.3217L94.9758 9.05654L94.0114 6.77009H93.8211L93.9162 9.05654V18.7437H93.9226Z" fill="black"/>
<path d="M118.526 18.9792C117.257 18.9792 116.147 18.7436 115.195 18.2723C114.244 17.801 113.501 17.1068 112.975 16.196C112.448 15.2852 112.188 14.1834 112.188 12.8969C112.188 11.674 112.448 10.604 112.975 9.69329C113.501 8.78253 114.231 8.0692 115.17 7.55969C116.109 7.05017 117.213 6.79541 118.482 6.79541C119.687 6.79541 120.747 7.01195 121.66 7.44504C122.574 7.87813 123.291 8.50866 123.798 9.33026C124.306 10.1519 124.56 11.1645 124.56 12.3555C124.56 12.5593 124.553 12.7504 124.534 12.9351C124.515 13.1134 124.496 13.2917 124.465 13.4637H113.806V12.0498H122.796L122.136 12.9224C122.149 12.7631 122.162 12.6103 122.162 12.4638C122.162 12.3173 122.162 12.1644 122.162 12.0052C122.162 10.9225 121.851 10.1136 121.235 9.59138C120.62 9.06913 119.681 8.80163 118.431 8.80163C117.035 8.80163 116.046 9.12645 115.449 9.76971C114.853 10.413 114.555 11.3428 114.555 12.5529V13.1644C114.555 14.3872 114.853 15.3234 115.449 15.9667C116.046 16.61 117.048 16.9348 118.456 16.9348C119.675 16.9348 120.556 16.7437 121.096 16.3552C121.635 15.9731 121.908 15.4317 121.908 14.7439V14.5528H124.445V14.763C124.445 15.5973 124.192 16.3297 123.684 16.9666C123.177 17.6035 122.479 18.1003 121.597 18.4506C120.702 18.8009 119.681 18.9792 118.526 18.9792Z" fill="black"/>
<path d="M131.602 18.9794C130.365 18.9794 129.318 18.7246 128.468 18.2151C127.618 17.7056 126.971 16.9923 126.533 16.0688C126.095 15.1516 125.873 14.0944 125.873 12.897C125.873 11.6742 126.095 10.6042 126.533 9.69344C126.971 8.78268 127.605 8.06935 128.436 7.55984C129.267 7.05032 130.27 6.79556 131.443 6.79556C132.82 6.79556 133.905 7.12038 134.704 7.76364C135.504 8.40691 136.018 9.22214 136.252 10.2157H136.836V12.8333H136.392C136.392 11.5914 136.043 10.6615 135.332 10.0437C134.628 9.42594 133.626 9.11386 132.325 9.11386C131.526 9.11386 130.828 9.23487 130.238 9.47689C129.642 9.71891 129.191 10.1202 128.887 10.6679C128.582 11.2156 128.43 11.9672 128.43 12.9098C128.43 13.8396 128.582 14.5721 128.887 15.1262C129.191 15.6739 129.642 16.0688 130.238 16.3044C130.834 16.5401 131.545 16.6547 132.376 16.6547C133.207 16.6547 133.924 16.5273 134.527 16.2662C135.129 16.0051 135.593 15.6038 135.91 15.0497C136.227 14.4956 136.392 13.8269 136.392 13.0244H136.836L137.001 15.3809H136.436C136.202 16.5464 135.662 17.4381 134.825 18.0559C133.987 18.6673 132.915 18.9794 131.602 18.9794ZM138.923 18.7437H136.601V15.0688L136.392 14.7631V2.95508H138.93V18.7437H138.923Z" fill="black"/>
<path d="M143.809 5.66189H141.271V2.95508H143.809V5.66189ZM143.809 18.7437H141.271V7.03121H143.809V18.7437Z" fill="black"/>
<path d="M153.807 9.15191H145.097V7.03105H153.807V9.15191ZM153.807 18.7436H151.13C149.88 18.7436 148.891 18.4379 148.161 17.8264C147.431 17.215 147.07 16.2023 147.07 14.7884V4.46436H149.582V14.642C149.582 15.368 149.753 15.8457 150.096 16.0941C150.439 16.3361 150.971 16.4571 151.695 16.4571H153.807V18.7436Z" fill="black"/>
<path d="M161.268 18.9792C160 18.9792 158.889 18.7436 157.938 18.2723C156.986 17.801 156.244 17.1068 155.717 16.196C155.19 15.2852 154.93 14.1834 154.93 12.8969C154.93 11.674 155.19 10.604 155.717 9.69329C156.244 8.78253 156.973 8.0692 157.912 7.55969C158.851 7.05017 159.955 6.79541 161.224 6.79541C162.429 6.79541 163.489 7.01195 164.403 7.44504C165.316 7.87813 166.033 8.50866 166.541 9.33026C167.048 10.1519 167.302 11.1645 167.302 12.3555C167.302 12.5593 167.296 12.7504 167.277 12.9351C167.258 13.1134 167.238 13.2917 167.207 13.4637H156.548V12.0498H165.538L164.878 12.9224C164.891 12.7631 164.904 12.6103 164.904 12.4638C164.904 12.3173 164.904 12.1644 164.904 12.0052C164.904 10.9225 164.593 10.1136 163.977 9.59138C163.362 9.06913 162.423 8.80163 161.173 8.80163C159.777 8.80163 158.788 9.12645 158.191 9.76971C157.595 10.413 157.297 11.3428 157.297 12.5529V13.1644C157.297 14.3872 157.595 15.3234 158.191 15.9667C158.788 16.61 159.79 16.9348 161.199 16.9348C162.417 16.9348 163.299 16.7437 163.838 16.3552C164.377 15.9731 164.65 15.4317 164.65 14.7439V14.5528H167.188V14.763C167.188 15.5973 166.934 16.3297 166.426 16.9666C165.919 17.6035 165.221 18.1003 164.339 18.4506C163.451 18.8009 162.429 18.9792 161.268 18.9792Z" fill="black"/>
<path d="M171.743 18.7436H169.205V7.03106H171.527V10.3557L171.737 10.4703V18.7436H171.743ZM171.743 12.1644H171.178V10.1901H171.692C171.8 9.5468 172.022 8.96723 172.352 8.45771C172.682 7.94819 173.12 7.54058 173.678 7.24124C174.236 6.9419 174.909 6.79541 175.708 6.79541C176.603 6.79541 177.326 6.98648 177.891 7.36225C178.455 7.73802 178.868 8.24116 179.122 8.87169C179.375 9.50222 179.509 10.1837 179.509 10.9225V12.4574H176.996V11.4193C176.996 10.5722 176.806 9.94805 176.432 9.55954C176.057 9.17103 175.429 8.96723 174.554 8.96723C173.551 8.96723 172.834 9.24109 172.397 9.79519C171.959 10.3493 171.743 11.1327 171.743 12.1644Z" fill="black"/>
<path d="M183.639 18.7436H181.101V7.03106H183.423V10.3557L183.632 10.4703V18.7436H183.639ZM183.639 12.1644H183.074V10.1901H183.588C183.696 9.5468 183.918 8.96723 184.248 8.45771C184.578 7.94819 185.016 7.54058 185.574 7.24124C186.132 6.9419 186.805 6.79541 187.604 6.79541C188.499 6.79541 189.222 6.98648 189.787 7.36225C190.351 7.73802 190.764 8.24116 191.017 8.87169C191.271 9.50222 191.404 10.1837 191.404 10.9225V12.4574H188.892V11.4193C188.892 10.5722 188.702 9.94805 188.327 9.55954C187.953 9.17103 187.325 8.96723 186.449 8.96723C185.447 8.96723 184.73 9.24109 184.292 9.79519C183.855 10.3493 183.639 11.1327 183.639 12.1644Z" fill="black"/>
<path d="M196.435 18.9793C195.23 18.9793 194.272 18.7054 193.561 18.164C192.851 17.6227 192.496 16.8711 192.496 15.9158C192.496 15.3044 192.648 14.7885 192.952 14.3745C193.257 13.9605 193.695 13.6293 194.253 13.3937C194.818 13.158 195.484 12.9924 196.251 12.8969L201.79 12.311V13.8204L196.975 14.3618C196.315 14.4382 195.826 14.5783 195.509 14.7757C195.192 14.9732 195.027 15.298 195.027 15.7566C195.027 16.2279 195.192 16.5782 195.528 16.8074C195.864 17.0367 196.391 17.1514 197.114 17.1514C198.009 17.1514 198.783 17.0367 199.436 16.8074C200.096 16.5782 200.61 16.2215 200.984 15.7375C201.359 15.2534 201.549 14.6229 201.549 13.8522L201.879 13.8968V15.8266H201.549C201.238 16.8138 200.635 17.5908 199.754 18.1449C198.872 18.699 197.768 18.9793 196.435 18.9793ZM204.042 18.7436H201.72V15.7247L201.555 15.6547V11.6486C201.555 10.6741 201.327 9.99265 200.864 9.61051C200.401 9.22837 199.608 9.03094 198.478 9.03094C197.4 9.03094 196.594 9.22201 196.061 9.59777C195.528 9.97354 195.262 10.5977 195.262 11.4575V11.553H192.749V11.4575C192.749 10.5595 192.984 9.76337 193.454 9.06278C193.923 8.3622 194.602 7.8081 195.484 7.40048C196.366 6.99287 197.425 6.78906 198.662 6.78906C199.9 6.78906 200.915 6.99924 201.701 7.41322C202.494 7.8272 203.078 8.40041 203.465 9.1201C203.846 9.83979 204.042 10.6741 204.042 11.6167V18.7436Z" fill="black"/>
<path d="M208.826 18.7436H206.288V7.03104H208.61V10.7059L208.82 10.8269V18.7436H208.826ZM218.476 18.7436H215.938V12.381C215.938 11.2791 215.678 10.4575 215.151 9.90981C214.625 9.36208 213.756 9.08821 212.538 9.08821C211.269 9.08821 210.336 9.41303 209.733 10.069C209.131 10.7187 208.832 11.6867 208.832 12.9542L208.388 12.9796L208.274 10.6677H208.788C208.915 10.0053 209.169 9.38119 209.549 8.79524C209.93 8.2093 210.463 7.72526 211.148 7.35586C211.827 6.98646 212.664 6.80176 213.648 6.80176C214.726 6.80176 215.627 7.02467 216.344 7.46413C217.061 7.90359 217.6 8.4959 217.956 9.22833C218.305 9.96713 218.482 10.7951 218.482 11.6995V18.7436H218.476Z" fill="black"/>
<path d="M226.597 18.9792C225.328 18.9792 224.218 18.7436 223.266 18.2723C222.314 17.801 221.572 17.1068 221.045 16.196C220.519 15.2852 220.259 14.1834 220.259 12.8969C220.259 11.674 220.519 10.604 221.045 9.69329C221.572 8.78253 222.302 8.0692 223.241 7.55969C224.18 7.05017 225.283 6.79541 226.552 6.79541C227.758 6.79541 228.817 7.01195 229.731 7.44504C230.645 7.87813 231.361 8.50866 231.869 9.33026C232.377 10.1519 232.63 11.1645 232.63 12.3555C232.63 12.5593 232.624 12.7504 232.605 12.9351C232.586 13.1134 232.567 13.2917 232.535 13.4637H221.877V12.0498H230.867L230.207 12.9224C230.219 12.7631 230.232 12.6103 230.232 12.4638C230.232 12.3173 230.232 12.1644 230.232 12.0052C230.232 10.9225 229.921 10.1136 229.306 9.59138C228.69 9.06913 227.751 8.80163 226.502 8.80163C225.106 8.80163 224.116 9.12645 223.52 9.76971C222.923 10.413 222.625 11.3428 222.625 12.5529V13.1644C222.625 14.3872 222.923 15.3234 223.52 15.9667C224.116 16.61 225.119 16.9348 226.527 16.9348C227.745 16.9348 228.627 16.7437 229.166 16.3552C229.706 15.9731 229.978 15.4317 229.978 14.7439V14.5528H232.516V14.763C232.516 15.5973 232.262 16.3297 231.755 16.9666C231.247 17.6035 230.549 18.1003 229.667 18.4506C228.779 18.8009 227.758 18.9792 226.597 18.9792Z" fill="black"/>
<path d="M237.96 18.9793C236.754 18.9793 235.796 18.7054 235.086 18.164C234.375 17.6227 234.02 16.8711 234.02 15.9158C234.02 15.3044 234.172 14.7885 234.477 14.3745C234.781 13.9605 235.219 13.6293 235.777 13.3937C236.342 13.158 237.008 12.9924 237.776 12.8969L243.314 12.311V13.8204L238.499 14.3618C237.839 14.4382 237.351 14.5783 237.033 14.7757C236.716 14.9732 236.551 15.298 236.551 15.7566C236.551 16.2279 236.716 16.5782 237.052 16.8074C237.389 17.0367 237.915 17.1514 238.638 17.1514C239.533 17.1514 240.307 17.0367 240.96 16.8074C241.62 16.5782 242.134 16.2215 242.509 15.7375C242.883 15.2534 243.073 14.6229 243.073 13.8522L243.403 13.8968V15.8266H243.073C242.762 16.8138 242.16 17.5908 241.278 18.1449C240.396 18.699 239.292 18.9793 237.96 18.9793ZM245.567 18.7436H243.244V15.7247L243.08 15.6547V11.6486C243.08 10.6741 242.851 9.99265 242.388 9.61051C241.925 9.22837 241.132 9.03094 240.003 9.03094C238.924 9.03094 238.118 9.22201 237.585 9.59777C237.052 9.97354 236.786 10.5977 236.786 11.4575V11.553H234.274V11.4575C234.274 10.5595 234.508 9.76337 234.978 9.06278C235.447 8.3622 236.126 7.8081 237.008 7.40048C237.89 6.99287 238.949 6.78906 240.186 6.78906C241.424 6.78906 242.439 6.99924 243.225 7.41322C244.019 7.8272 244.602 8.40041 244.989 9.1201C245.37 9.83979 245.567 10.6741 245.567 11.6167V18.7436Z" fill="black"/>
<path d="M250.357 18.7436H247.819V7.03104H250.141V10.7059L250.35 10.8269V18.7436H250.357ZM260 18.7436H257.462V12.381C257.462 11.2791 257.202 10.4575 256.676 9.90981C256.149 9.36208 255.28 9.08821 254.062 9.08821C252.793 9.08821 251.86 9.41303 251.257 10.069C250.655 10.7187 250.357 11.6867 250.357 12.9542L249.912 12.9796L249.798 10.6677H250.312C250.439 10.0053 250.693 9.38119 251.073 8.79524C251.454 8.2093 251.987 7.72526 252.672 7.35586C253.351 6.98646 254.189 6.80176 255.172 6.80176C256.251 6.80176 257.151 7.02467 257.868 7.46413C258.585 7.90359 259.125 8.4959 259.48 9.22833C259.829 9.96713 260.006 10.7951 260.006 11.6995V18.7436H260Z" fill="black"/>
<path d="M102.741 75.109C99.3534 75.109 96.6126 74.332 94.5253 72.7652C92.438 71.2048 91.3912 69.0457 91.3912 66.3007C91.3912 64.39 91.867 62.8424 92.8187 61.6514C93.7703 60.4604 95.0836 59.5432 96.7522 58.8872C98.4208 58.2376 100.33 57.7663 102.462 57.4861L119.522 55.6008V58.8872L103.991 60.6323C101.39 60.868 99.4613 61.3584 98.2114 62.0972C96.9552 62.8424 96.3335 64.1225 96.3335 65.944C96.3335 67.67 96.9362 68.982 98.1416 69.8928C99.3471 70.8035 101.25 71.2557 103.852 71.2557C106.681 71.2557 109.213 70.8227 111.446 69.9628C113.673 69.103 115.462 67.7847 116.807 66.0141C118.152 64.2435 118.824 61.9825 118.824 59.2311L119.801 59.5814V65.1033H118.824C117.803 68.2751 115.874 70.7335 113.045 72.4786C110.215 74.2364 106.783 75.109 102.741 75.109ZM123.633 74.4147H119.173V64.976L118.824 64.6957V53.015C118.824 49.6586 118.031 47.2575 116.458 45.8118C114.878 44.366 112.188 43.6463 108.381 43.6463C104.714 43.6463 101.917 44.3341 99.9878 45.7098C98.0591 47.0855 97.0948 49.3083 97.0948 52.3845V52.6648H92.1525V52.3845C92.1525 49.9134 92.7996 47.6906 94.1002 45.7098C95.4008 43.7291 97.2788 42.1432 99.7404 40.9586C102.202 39.7676 105.197 39.1753 108.724 39.1753C112.207 39.1753 115.049 39.7803 117.257 40.9904C119.459 42.2006 121.077 43.831 122.098 45.8818C123.12 47.9326 123.633 50.2382 123.633 52.8049V74.4147Z" fill="black"/>
<path d="M136.728 74.415H131.786V27.5713H136.728V74.415Z" fill="black"/>
<path d="M159.784 71.6192C156.345 71.6192 153.401 70.9186 150.94 69.5238C148.478 68.1227 146.587 66.212 145.261 63.7918C143.936 61.3716 143.276 58.5692 143.276 55.4038C143.276 52.2321 143.961 49.4361 145.331 47.0159C146.702 44.5957 148.662 42.6787 151.219 41.2839C153.769 39.8827 156.815 39.1885 160.342 39.1885C163.965 39.1885 167.086 40.0292 169.713 41.7042C172.333 43.3856 173.995 45.7358 174.693 48.7674H176.152L175.873 54.4294H174.547C174.547 52.1493 174.002 50.2004 172.91 48.5891C171.819 46.9777 170.309 45.7485 168.38 44.8823C166.452 44.0225 164.142 43.5894 161.452 43.5894C158.896 43.5894 156.624 43.9652 154.626 44.7104C152.627 45.4555 151.06 46.6911 149.925 48.4171C148.789 50.1431 148.218 52.4741 148.218 55.4102C148.218 58.3463 148.776 60.6774 149.887 62.4033C151.003 64.1293 152.519 65.3649 154.448 66.1101C156.377 66.8552 158.591 67.231 161.097 67.231C165.322 67.231 168.622 66.2183 170.988 64.1866C173.355 62.1613 174.541 59.3017 174.541 55.6204H175.867V62.4033H174.198C173.5 65.0592 171.908 67.2629 169.427 69.0079C166.94 70.7403 163.73 71.6192 159.784 71.6192ZM161.941 87.0003C158.832 87.0003 156.034 86.4844 153.547 85.459C151.06 84.4336 149.1 82.9878 147.66 81.1217C146.22 79.2556 145.503 76.9755 145.503 74.2687H150.445C150.445 76.2749 150.883 77.9054 151.771 79.1601C152.653 80.4211 153.966 81.3255 155.704 81.886C157.443 82.4465 159.594 82.7267 162.144 82.7267C165.113 82.7267 167.518 82.3764 169.351 81.6758C171.185 80.9752 172.511 79.797 173.323 78.1474C174.135 76.4915 174.541 74.2432 174.541 71.4027V51.5506L175.029 50.9201V39.8763H179.49V71.1288C179.49 74.9502 178.747 78.0137 177.263 80.3256C175.778 82.6312 173.722 84.3189 171.096 85.3953C168.476 86.4653 165.424 87.0003 161.941 87.0003Z" fill="black"/>
<path d="M197.387 75.109C193.999 75.109 191.258 74.332 189.171 72.7652C187.084 71.2048 186.037 69.0457 186.037 66.3007C186.037 64.39 186.513 62.8424 187.464 61.6514C188.416 60.4604 189.729 59.5432 191.398 58.8872C193.067 58.2376 194.976 57.7663 197.108 57.4861L214.168 55.6008V58.8872L198.637 60.6323C196.036 60.868 194.107 61.3584 192.857 62.0972C191.601 62.8424 190.979 64.1225 190.979 65.944C190.979 67.67 191.582 68.982 192.787 69.8928C193.993 70.8035 195.896 71.2557 198.497 71.2557C201.327 71.2557 203.858 70.8227 206.092 69.9628C208.319 69.103 210.108 67.7847 211.453 66.0141C212.798 64.2435 213.47 61.9825 213.47 59.2311L214.447 59.5814V65.1033H213.47C212.449 68.2751 210.52 70.7335 207.69 72.4786C204.867 74.2364 201.429 75.109 197.387 75.109ZM218.286 74.4147H213.825V64.976L213.477 64.6957V53.015C213.477 49.6586 212.683 47.2575 211.11 45.8118C209.53 44.366 206.84 43.6463 203.034 43.6463C199.367 43.6463 196.569 44.3341 194.64 45.7098C192.711 47.0855 191.747 49.3083 191.747 52.3845V52.6648H186.805V52.3845C186.805 49.9134 187.452 47.6906 188.752 45.7098C190.053 43.7291 191.931 42.1432 194.393 40.9586C196.854 39.7676 199.849 39.1753 203.376 39.1753C206.859 39.1753 209.702 39.7803 211.909 40.9904C214.111 42.2006 215.729 43.831 216.75 45.8818C217.772 47.9326 218.286 50.2382 218.286 52.8049V74.4147Z" fill="black"/>
<path d="M242.8 75.109C239.133 75.109 235.929 74.3765 233.189 72.9053C230.448 71.4404 228.348 69.3514 226.889 66.651C225.423 63.9506 224.693 60.7788 224.693 57.1421C224.693 53.6456 225.423 50.5439 226.889 47.8435C228.348 45.143 230.441 43.0221 233.157 41.4809C235.872 39.9396 239.063 39.1753 242.731 39.1753C246.118 39.1753 249.107 39.8058 251.683 41.0605C254.258 42.3216 256.289 44.1494 257.779 46.5505C259.264 48.9516 260.006 51.875 260.006 55.327C260.006 55.932 259.975 56.5052 259.905 57.0402C259.835 57.5752 259.753 58.0784 259.664 58.5433H227.764V55.4671H256.669L255.21 57.2822C255.254 56.8173 255.292 56.3524 255.312 55.8811C255.337 55.4161 255.343 54.9257 255.343 54.4162C255.343 50.7795 254.252 48.0154 252.07 46.1302C249.887 44.245 246.753 43.296 242.667 43.296C237.979 43.296 234.584 44.4743 232.497 46.8244C230.41 49.1809 229.363 52.4036 229.363 56.5052V57.6262C229.363 61.7787 230.41 65.0396 232.497 67.4153C234.584 69.7909 237.998 70.9819 242.737 70.9819C246.778 70.9819 249.76 70.2749 251.689 68.8483C253.618 67.428 254.582 65.46 254.582 62.9379V62.4475H259.524V62.9379C259.524 65.3645 258.801 67.4853 257.367 69.3005C255.927 71.1156 253.941 72.5423 251.41 73.5677C248.872 74.5995 246.004 75.109 242.8 75.109Z" fill="black"/>
</g>
<defs>
<clipPath id="clip0_615_172">
<rect width="260" height="87" fill="white"/>
</clipPath>
</defs>
</svg>
